<?xml version="1.0" encoding="utf-8"?>
<!-- Generator: Adobe Illustrator 24.2.0, SVG Export Plug-In . SVG Version: 6.00 Build 0)  -->
<svg version="1.1" id="Слой_1" xmlns="http://www.w3.org/2000/svg" xmlns:xlink="http://www.w3.org/1999/xlink" x="0px" y="0px"
	 viewBox="0 0 90 35.7" style="enable-background:new 0 0 90 35.7;" xml:space="preserve">
<style type="text/css">
	.st0{fill:#FFFFFF;}
</style>
<g>
	<path class="st0" d="M8.8,6.4c0.8,0.8,1.2,2,1.2,3.5v7.9H8.9v-2.2c-0.4,0.7-1,1.3-1.7,1.7c-0.8,0.4-1.7,0.6-2.7,0.6
		c-1.4,0-2.5-0.3-3.3-1S0,15.4,0,14.3c0-1,0.4-1.9,1.1-2.5s1.9-1,3.5-1h4.3v-1c0-1.1-0.3-2-0.9-2.6S6.5,6.3,5.3,6.3
		c-0.8,0-1.6,0.1-2.4,0.4S1.5,7.4,1,7.8L0.3,7c0.6-0.6,1.4-1,2.2-1.3c0.9-0.3,1.8-0.5,2.7-0.5C6.8,5.3,8,5.6,8.8,6.4z M7.2,16.1
		c0.7-0.5,1.3-1.2,1.6-2.1v-2.3H4.6c-1.2,0-2.1,0.2-2.6,0.7s-0.8,1.1-0.8,1.8c0,0.8,0.3,1.4,0.9,1.9c0.6,0.5,1.5,0.7,2.5,0.7
		C5.6,16.9,6.5,16.6,7.2,16.1z"/>
	<path class="st0" d="M17.8,6c0.8-0.5,1.8-0.7,2.9-0.7v1.2h-0.3c-1.4,0-2.5,0.4-3.2,1.3S16,9.9,16,11.4v6.5h-1.2V5.4h1.1v2.7
		C16.4,7.2,17,6.5,17.8,6z"/>
	<path class="st0" d="M30.8,17c-0.3,0.3-0.7,0.5-1.1,0.6s-0.9,0.2-1.4,0.2c-1.1,0-1.9-0.3-2.5-0.9s-0.9-1.4-0.9-2.5v-8h-2.3v-1h2.3
		V2.6h1.2v2.7H30v1h-3.9v8c0,0.8,0.2,1.4,0.6,1.8c0.4,0.4,1,0.6,1.7,0.6c0.8,0,1.4-0.2,1.9-0.7L30.8,17z"/>
	<path class="st0" d="M41.9,17c-0.9-0.5-1.7-1.3-2.2-2.2c-0.5-1-0.8-2-0.8-3.2s0.3-2.3,0.8-3.2s1.3-1.7,2.2-2.2s2-0.8,3.2-0.8
		s2.2,0.3,3.2,0.8s1.7,1.3,2.2,2.2c0.5,1,0.8,2,0.8,3.2s-0.3,2.3-0.8,3.2s-1.3,1.7-2.2,2.2s-2,0.8-3.2,0.8S42.8,17.6,41.9,17z
		 M47.6,16.1c0.8-0.4,1.3-1.1,1.8-1.9c0.4-0.8,0.6-1.7,0.6-2.7s-0.2-1.9-0.6-2.7s-1-1.4-1.8-1.8S46,6.3,45,6.3S43.2,6.5,42.5,7
		c-0.8,0.4-1.3,1.1-1.8,1.8S40,10.5,40,11.5s0.2,1.9,0.7,2.7c0.4,0.8,1,1.4,1.8,1.9c0.7,0.4,1.6,0.7,2.5,0.7S46.8,16.5,47.6,16.1z"
		/>
	<path class="st0" d="M56.3,3.5v1.8h4v1h-3.9v11.4h-1.2V6.4h-2.3v-1h2.3V3.5c0-1,0.3-1.9,0.9-2.5c0.5-0.7,1.4-1,2.5-1
		c0.5,0,0.9,0.1,1.4,0.2s0.8,0.3,1.1,0.6l-0.5,0.9C60,1.3,59.4,1,58.6,1C57.1,1.1,56.3,1.9,56.3,3.5z"/>
	<path class="st0" d="M76.5,6.4c0.8,0.8,1.2,1.9,1.2,3.5v7.9h-1.1v-2.2c-0.4,0.7-1,1.3-1.7,1.7c-0.8,0.4-1.7,0.6-2.7,0.6
		c-1.4,0-2.5-0.3-3.3-1s-1.2-1.5-1.2-2.6c0-1,0.4-1.9,1.1-2.5s1.9-1,3.5-1h4.3v-1c0-1.1-0.3-2-0.9-2.6S74.2,6.3,73,6.3
		c-0.8,0-1.6,0.1-2.4,0.4s-1.4,0.7-1.9,1.1L68,7c0.6-0.6,1.4-1,2.2-1.3S72,5.3,73,5.3C74.5,5.3,75.7,5.6,76.5,6.4z M74.9,16.1
		c0.7-0.5,1.3-1.2,1.6-2.1v-2.3h-4.2c-1.2,0-2.1,0.2-2.7,0.7s-0.8,1.1-0.8,1.8c0,0.8,0.3,1.4,0.9,1.9c0.6,0.5,1.4,0.7,2.5,0.7
		C73.3,16.9,74.2,16.6,74.9,16.1z"/>
	<path class="st0" d="M82.6,0.1h1.2v17.6h-1.2V0.1z"/>
	<path class="st0" d="M88.8,0.1H90v17.6h-1.2V0.1z"/>
</g>
<g>
	<path class="st0" d="M42.3,25.5c0.5,0.5,0.8,1.2,0.8,2.2v5h-0.7v-1.4c-0.3,0.5-0.6,0.8-1.1,1.1c-0.5,0.3-1,0.4-1.7,0.4
		c-0.9,0-1.6-0.2-2.1-0.6c-0.5-0.4-0.8-1-0.8-1.6c0-0.7,0.2-1.2,0.7-1.6s1.2-0.6,2.2-0.6h2.7v-0.6c0-0.7-0.2-1.3-0.6-1.7
		c-0.4-0.4-1-0.6-1.7-0.6c-0.5,0-1,0.1-1.5,0.3s-0.9,0.4-1.2,0.7L37,25.9c0.4-0.3,0.9-0.6,1.4-0.8s1.1-0.3,1.7-0.3
		C41.1,24.8,41.8,25.1,42.3,25.5z M41.3,31.7c0.5-0.3,0.8-0.7,1-1.3v-1.5h-2.7c-0.8,0-1.3,0.1-1.7,0.4c-0.3,0.3-0.5,0.7-0.5,1.2
		s0.2,0.9,0.6,1.2c0.4,0.3,0.9,0.4,1.6,0.4C40.3,32.1,40.9,32,41.3,31.7z"/>
	<path class="st0" d="M53.3,24.9v7c0,1.3-0.3,2.3-0.9,2.9c-0.6,0.6-1.6,0.9-2.8,0.9c-0.7,0-1.4-0.1-2-0.3c-0.6-0.2-1.1-0.5-1.5-0.9
		l0.4-0.6c0.4,0.4,0.9,0.6,1.4,0.8c0.6,0.2,1.1,0.3,1.8,0.3c1,0,1.8-0.3,2.3-0.7s0.8-1.3,0.8-2.3v-1.3c-0.3,0.6-0.8,1-1.3,1.3
		c-0.5,0.3-1.2,0.5-1.9,0.5s-1.4-0.2-2-0.5c-0.6-0.3-1.1-0.8-1.4-1.4c-0.3-0.6-0.5-1.2-0.5-2c0-0.7,0.2-1.4,0.5-2s0.8-1,1.4-1.3
		s1.3-0.5,2-0.5s1.4,0.2,2,0.5s1,0.8,1.3,1.3v-1.8C52.6,24.9,53.3,24.9,53.3,24.9z M51,31.3c0.5-0.3,0.9-0.6,1.2-1.1s0.4-1,0.4-1.6
		s-0.1-1.2-0.4-1.6c-0.3-0.5-0.7-0.8-1.2-1.1s-1-0.4-1.6-0.4s-1.2,0.1-1.6,0.4c-0.5,0.3-0.9,0.6-1.1,1.1c-0.3,0.5-0.4,1-0.4,1.6
		s0.1,1.2,0.4,1.6c0.3,0.5,0.7,0.8,1.1,1.1c0.5,0.3,1,0.4,1.6,0.4S50.5,31.6,51,31.3z"/>
	<path class="st0" d="M63.1,29h-6.7c0,0.6,0.2,1.2,0.5,1.6s0.7,0.8,1.2,1.1s1.1,0.4,1.7,0.4c0.5,0,1-0.1,1.4-0.3
		c0.4-0.2,0.8-0.5,1.1-0.8l0.4,0.5c-0.3,0.4-0.8,0.7-1.3,1c-0.5,0.2-1.1,0.3-1.7,0.3c-0.8,0-1.5-0.2-2.1-0.5
		c-0.6-0.3-1.1-0.8-1.4-1.4c-0.3-0.6-0.5-1.3-0.5-2c0-0.8,0.2-1.4,0.5-2s0.8-1.1,1.3-1.4c0.6-0.3,1.2-0.5,1.9-0.5s1.3,0.2,1.9,0.5
		s1,0.8,1.3,1.4c0.3,0.6,0.5,1.3,0.5,2L63.1,29z M57.9,25.8c-0.4,0.3-0.8,0.6-1.1,1s-0.4,1-0.5,1.5h6c0-0.6-0.2-1.1-0.4-1.5
		s-0.6-0.8-1.1-1c-0.4-0.3-0.9-0.4-1.5-0.4C58.8,25.5,58.3,25.6,57.9,25.8z"/>
	<path class="st0" d="M71.6,25.7c0.6,0.6,0.8,1.4,0.8,2.5v4.6h-0.8v-4.5c0-0.9-0.2-1.5-0.7-2s-1.1-0.7-1.9-0.7
		c-0.9,0-1.6,0.3-2.2,0.8S66,27.7,66,28.6v4.2h-0.8V25h0.7v1.7c0.3-0.5,0.7-1,1.2-1.3s1.2-0.5,1.9-0.5C70.2,24.8,71,25.1,71.6,25.7z
		"/>
	<path class="st0" d="M76.6,32.2c-0.6-0.3-1.1-0.8-1.4-1.4c-0.3-0.6-0.5-1.3-0.5-2c0-0.8,0.2-1.5,0.5-2.1s0.8-1.1,1.4-1.4
		c0.6-0.3,1.3-0.5,2-0.5c0.6,0,1.2,0.1,1.7,0.4c0.5,0.3,0.9,0.6,1.3,1.1L81,26.7c-0.3-0.4-0.6-0.7-1-0.9s-0.9-0.3-1.4-0.3
		c-0.6,0-1.2,0.1-1.6,0.4c-0.5,0.3-0.9,0.7-1.1,1.2s-0.4,1.1-0.4,1.7c0,0.7,0.1,1.2,0.4,1.7s0.7,0.9,1.1,1.2c0.5,0.3,1,0.4,1.6,0.4
		c0.5,0,1-0.1,1.4-0.3c0.4-0.2,0.8-0.5,1-0.9l0.6,0.4c-0.3,0.5-0.7,0.8-1.3,1.1c-0.5,0.3-1.1,0.4-1.7,0.4
		C77.9,32.8,77.2,32.6,76.6,32.2z"/>
	<path class="st0" d="M90,24.9l-4,8.9c-0.3,0.7-0.7,1.2-1,1.5c-0.4,0.3-0.9,0.4-1.4,0.4c-0.4,0-0.7-0.1-1-0.2
		c-0.3-0.1-0.6-0.3-0.8-0.5l0.4-0.6c0.4,0.4,0.9,0.6,1.5,0.6c0.4,0,0.7-0.1,1-0.3c0.3-0.2,0.5-0.6,0.8-1.1l0.4-1l-3.5-7.8h0.8l3.1,7
		l3.1-7L90,24.9L90,24.9z"/>
</g>
</svg>
